<svg xmlns="http://www.w3.org/2000/svg" width="1200" height="580" xmlns:v="https://vecta.io/nano"><path d="M734.567 34.372c-28.692 61.724-23.266 100.422 16.275 116.094 59.313 23.508 200.347 32.911 259.299 83.906s238.697 11.572 269.438-75.95S1365.669-64 1073.808-64c-194.576 0-307.654 32.79-339.24 98.372h-.001z" fill="#fffa72"/><path d="M312.353 156.242c19.444 172.827 97.195 281.182 233.245 325.063 204.079 65.822 614.175 92.151 861.678 234.937 247.496 142.783 687.059 32.402 631.647-212.66S1920.412-119.2 1103.201-119.2c-544.813 0-808.424 91.812-790.846 275.442h-.003z" fill="#eaeaff"/><path d="M344.019 146.086c9.115 163.569 76.878 266.118 203.281 307.649 189.609 62.296 576.32 87.214 802.891 222.351 226.564 135.134 648.511 30.666 609.237-201.267S1880.735-114.6 1107.303-114.6c-515.626 0-770.049 86.893-763.282 260.686h-.003z" fill="#d5d5ff"/><path d="M376.487 135.93c.226 154.31 58.904 251.055 176.026 290.235 175.687 58.77 539.234 82.277 746.063 209.765 206.822 127.485 610.233 28.93 585.055-189.875S1839.563-110 1109.911-110c-486.44 0-730.909 81.975-733.421 245.93h-.003z" fill="#bfbfff"/><path d="M409.69 125.774c-7.344 145.051 43.076 235.992 151.252 272.821 162.268 55.244 502.851 77.341 691.027 197.179 188.17 119.836 572.202 27.194 559.249-178.482S1797.024-105.4 1111.151-105.4c-457.254 0-691.069 77.056-701.459 231.174h-.002z" fill="#aaf"/><path d="M443.57 115.618c-13.698 135.793 29.226 220.928 128.765 255.407 149.312 51.718 467.116 72.404 637.644 184.593 170.523 112.187 534.399 25.458 531.948-167.09S1753.225-100.8 1111.131-100.8c-428.067 0-650.583 72.138-667.558 216.418h-.002z" fill="#9595ff"/><path d="M478.079 105.463c-18.923 126.534 17.214 205.865 108.403 237.993 136.786 48.191 431.984 67.468 585.797 172.007s496.809 23.723 503.257-155.698S1708.254-96.2 1109.939-96.2c-398.881 0-609.496 67.219-631.858 201.663h-.002z" fill="#8080ff"/><path d="M513.176 95.307c-23.091 117.276 6.92 190.802 90.026 220.579 124.663 44.665 397.414 62.531 535.385 159.421s459.416 21.987 473.266-144.305S1662.188-91.6 1107.653-91.6c-369.694 0-567.849 62.301-594.474 186.907h-.002z" fill="#6a6aff"/><path d="M548.827 85.151c-26.264 108.017-1.755 175.739 73.522 203.165 112.918 41.139 363.376 57.594 486.326 146.835s422.209 20.251 442.051-132.912S1615.091-87 1104.334-87C763.826-87 578.661-29.617 548.829 85.151h-.002z" fill="#55f"/><path d="M585.004 74.995c-28.493 98.758-8.894 160.675 58.793 185.75 101.533 37.613 329.84 52.658 438.55 134.25s385.18 18.515 409.674-121.52S1567.015-82.4 1100.037-82.4c-311.322 0-482.996 52.464-515.031 157.395h-.002z" fill="#4040ff"/><path d="M621.684 64.839c-29.821 89.5-14.566 145.612 45.761 168.336 90.491 34.087 296.786 47.721 392.001 121.664s348.32 16.779 376.187-110.127S1518.003-77.8 1094.804-77.8c-282.135 0-439.839 47.546-473.119 142.639h-.001z" fill="#2a2aff"/><path d="M658.846 54.684c-30.279 80.241-18.824 130.549 34.361 150.922 79.781 30.56 264.194 42.784 346.632 109.078s311.622 15.044 341.631-98.735 86.62-289.149-292.8-289.149c-252.949 0-396.221 42.627-429.824 127.884h-.001z" fill="#1515ff"/><path d="M696.478 44.528c-29.897 70.983-21.714 115.485 24.545 133.508 69.39 27.034 232.052 37.848 302.407 96.492s275.083 13.308 306.04-87.342S1417.306-68.6 1081.666-68.6c-223.762 0-352.156 37.708-385.187 113.128h-.001z" fill="#00f"/></svg>